<svg xmlns="http://www.w3.org/2000/svg" viewBox="0 0 232.74 232.74"><defs><style>.cls-1{fill:#fff;}.cls-2{fill:#ff4500;}</style></defs><g id="Layer_2" data-name="Layer 2"><g id="Layer_1-2" data-name="Layer 1"><path class="cls-1" d="M232.74.45c-1,0-2,.06-3,.06H.51V229.79c0,1,0,2-.06,3A6.27,6.27,0,0,1,0,231.15c0-8.92,0-17.84,0-26.76V0H3.52Q117.1,0,230.7,0A9.9,9.9,0,0,1,232.74.45Z"/><path class="cls-2" d="M47.71,212.15l14.53-8.42q40.42-23.32,80.86-46.62a4,4,0,0,0,2.37-4.06c-.09-20.64-.05-41.28-.05-61.92V88.3l-39.21,22.62v-7.16c0-4.61,0-9.22,0-13.83a2.69,2.69,0,0,1,1.54-2.7q37.69-21.7,75.37-43.44a2.73,2.73,0,0,1,2.21-.3c6.19,3.46,12.32,7,18.83,10.79-1,.63-1.71,1.11-2.45,1.54-11.51,6.65-23,13.34-34.56,19.89a3.61,3.61,0,0,0-2.06,3.73c0,28.35,0,56.7.08,85.05a4,4,0,0,1-2.38,4q-46.44,26.73-92.8,53.6c-1.92,1.11-3.31,1.28-5.27.06-4.87-3-9.91-5.79-14.88-8.67C49.18,213.16,48.59,212.73,47.71,212.15Z"/><path class="cls-2" d="M86.87,144.4,125.68,122c.09,1,.19,1.6.2,2.23,0,6.13,0,12.25,0,18.38a3.15,3.15,0,0,1-1.91,3.17q-37.41,21.53-74.79,43.1a2.78,2.78,0,0,1-2.2.38c-6.24-3.49-12.42-7.09-18.94-10.86,1-.59,1.66-1,2.35-1.42,11.58-6.69,23.14-13.4,34.76-20a3.5,3.5,0,0,0,2-3.53c-.06-28.43,0-56.86-.09-85.29a3.89,3.89,0,0,1,2.21-3.92q46.76-26.86,93.4-53.92a3.63,3.63,0,0,1,4.28-.06c5.67,3.43,11.46,6.67,17.54,10.18-1,.61-1.62,1-2.3,1.44Q136,48.63,89.64,75.31a4.86,4.86,0,0,0-2.83,4.94c.1,20.34.06,40.68.06,61Z"/></g></g></svg>