<svg xmlns="http://www.w3.org/2000/svg" viewBox="0 0 176.12 214.67"><defs><style>.cls-1{fill:#FF4500;}</style></defs><g id="Layer_2" data-name="Layer 2"><g id="Layer_1-2" data-name="Layer 1"><polygon class="cls-1" points="156.55 11.3 117.41 33.9 97.84 45.2 78.27 56.49 58.71 67.79 58.71 135.58 78.27 124.28 78.28 124.28 97.84 112.98 97.84 135.58 78.27 146.88 58.71 158.18 39.14 169.47 19.57 180.77 0 169.47 19.57 158.18 39.14 146.88 39.14 56.49 58.71 45.2 78.27 33.9 136.98 0 156.55 11.3"/><polygon class="cls-1" points="176.12 45.2 156.55 56.49 136.98 67.79 136.98 158.18 117.41 169.47 97.84 180.77 78.28 192.07 39.14 214.67 19.57 203.37 58.71 180.77 78.28 169.47 97.84 158.18 117.41 146.88 117.41 79.09 97.84 90.39 78.27 101.69 78.27 79.09 78.28 79.09 97.84 67.79 117.41 56.49 136.98 45.2 156.55 33.9 176.12 45.2"/></g></g></svg>